<mxfile host="app.diagrams.net" agent="Mozilla/5.0 (Windows NT 10.0; Win64; x64) AppleWebKit/537.36 (KHTML, like Gecko) Chrome/129.0.0.0 Safari/537.36" version="24.7.14">
  <diagram name="Страница — 1" id="tzh570L_oyDHZUyU0s-m">
    <mxGraphModel dx="1434" dy="3082" grid="1" gridSize="10" guides="1" tooltips="1" connect="1" arrows="1" fold="1" page="1" pageScale="1" pageWidth="1654" pageHeight="2336" math="0" shadow="0">
      <root>
        <mxCell id="0" />
        <mxCell id="1" parent="0" />
        <mxCell id="eurHvXZVV9UuIyRGiBzC-6" value="&lt;font style=&quot;font-size: 21px;&quot;&gt;name: text&lt;/font&gt;&lt;div style=&quot;font-size: 21px;&quot;&gt;&lt;font style=&quot;font-size: 21px;&quot;&gt;email: text&lt;/font&gt;&lt;/div&gt;&lt;div style=&quot;font-size: 21px;&quot;&gt;&lt;font style=&quot;font-size: 21px;&quot;&gt;password: text&lt;/font&gt;&lt;/div&gt;" style="whiteSpace=wrap;html=1;aspect=fixed;align=left;" parent="1" vertex="1">
          <mxGeometry x="617" y="190" width="210" height="210" as="geometry" />
        </mxCell>
        <mxCell id="eurHvXZVV9UuIyRGiBzC-9" value="id:uuid&lt;div style=&quot;font-size: 15px;&quot;&gt;created:timestamp&lt;/div&gt;&lt;div style=&quot;font-size: 15px;&quot;&gt;updated:timestamp&lt;/div&gt;" style="rounded=0;whiteSpace=wrap;html=1;align=left;fontSize=15;" parent="1" vertex="1">
          <mxGeometry x="617" y="400" width="210" height="60" as="geometry" />
        </mxCell>
        <mxCell id="eurHvXZVV9UuIyRGiBzC-11" value="Customers" style="rounded=0;whiteSpace=wrap;html=1;fontSize=22;" parent="1" vertex="1">
          <mxGeometry x="617" y="150" width="210" height="40" as="geometry" />
        </mxCell>
        <mxCell id="eurHvXZVV9UuIyRGiBzC-23" value="refreshToken: text&lt;div&gt;user_id: uuid&lt;/div&gt;" style="whiteSpace=wrap;html=1;aspect=fixed;fontSize=18;align=left;" parent="1" vertex="1">
          <mxGeometry x="110" y="410" width="180" height="180" as="geometry" />
        </mxCell>
        <mxCell id="eurHvXZVV9UuIyRGiBzC-24" value="Refresh_Tokens" style="rounded=0;whiteSpace=wrap;html=1;fontSize=18;" parent="1" vertex="1">
          <mxGeometry x="110" y="380" width="180" height="40" as="geometry" />
        </mxCell>
        <mxCell id="eurHvXZVV9UuIyRGiBzC-27" value="&lt;br&gt;&lt;span style=&quot;color: rgb(0, 0, 0); font-family: Helvetica; font-size: 14px; font-style: normal; font-variant-ligatures: normal; font-variant-caps: normal; font-weight: 400; letter-spacing: normal; orphans: 2; text-indent: 0px; text-transform: none; widows: 2; word-spacing: 0px; -webkit-text-stroke-width: 0px; white-space: normal; background-color: rgb(251, 251, 251); text-decoration-thickness: initial; text-decoration-style: initial; text-decoration-color: initial; float: none; display: inline !important;&quot;&gt;id:uuid&lt;/span&gt;&lt;div style=&quot;forced-color-adjust: none; color: rgb(0, 0, 0); font-family: Helvetica; font-size: 14px; font-style: normal; font-variant-ligatures: normal; font-variant-caps: normal; font-weight: 400; letter-spacing: normal; orphans: 2; text-indent: 0px; text-transform: none; widows: 2; word-spacing: 0px; -webkit-text-stroke-width: 0px; white-space: normal; background-color: rgb(251, 251, 251); text-decoration-thickness: initial; text-decoration-style: initial; text-decoration-color: initial;&quot;&gt;created:timestamp&lt;/div&gt;&lt;div style=&quot;forced-color-adjust: none; color: rgb(0, 0, 0); font-family: Helvetica; font-size: 14px; font-style: normal; font-variant-ligatures: normal; font-variant-caps: normal; font-weight: 400; letter-spacing: normal; orphans: 2; text-indent: 0px; text-transform: none; widows: 2; word-spacing: 0px; -webkit-text-stroke-width: 0px; white-space: normal; background-color: rgb(251, 251, 251); text-decoration-thickness: initial; text-decoration-style: initial; text-decoration-color: initial;&quot;&gt;updated:timestamp&lt;/div&gt;&lt;div&gt;&lt;br/&gt;&lt;/div&gt;" style="rounded=0;whiteSpace=wrap;html=1;align=left;fontSize=14;" parent="1" vertex="1">
          <mxGeometry x="110" y="590" width="180" height="70" as="geometry" />
        </mxCell>
        <mxCell id="0BwHA3h7uG1Hugz1Lj5o-1" value="Salesman" style="rounded=0;whiteSpace=wrap;html=1;fontSize=20;" parent="1" vertex="1">
          <mxGeometry x="604" y="560" width="223" height="60" as="geometry" />
        </mxCell>
        <mxCell id="0BwHA3h7uG1Hugz1Lj5o-2" value="&lt;br&gt;&lt;span style=&quot;font-size: 14px;&quot;&gt;id:uuid&lt;/span&gt;&lt;div style=&quot;font-size: 14px;&quot;&gt;created:timestamp&lt;/div&gt;&lt;div style=&quot;font-size: 14px;&quot;&gt;updated:timestamp&lt;/div&gt;&lt;div&gt;&lt;br style=&quot;font-size: 14px;&quot;&gt;&lt;/div&gt;" style="rounded=0;whiteSpace=wrap;html=1;align=left;" parent="1" vertex="1">
          <mxGeometry x="604" y="790" width="223" height="60" as="geometry" />
        </mxCell>
        <mxCell id="0BwHA3h7uG1Hugz1Lj5o-3" value="&#xa;&lt;font style=&quot;forced-color-adjust: none; color: rgb(0, 0, 0); font-family: Helvetica; font-style: normal; font-variant-ligatures: normal; font-variant-caps: normal; font-weight: 400; letter-spacing: normal; orphans: 2; text-indent: 0px; text-transform: none; widows: 2; word-spacing: 0px; -webkit-text-stroke-width: 0px; white-space: normal; background-color: rgb(251, 251, 251); text-decoration-thickness: initial; text-decoration-style: initial; text-decoration-color: initial; font-size: 21px;&quot;&gt;name: text&lt;/font&gt;&lt;div style=&quot;forced-color-adjust: none; color: rgb(0, 0, 0); font-family: Helvetica; font-style: normal; font-variant-ligatures: normal; font-variant-caps: normal; font-weight: 400; letter-spacing: normal; orphans: 2; text-indent: 0px; text-transform: none; widows: 2; word-spacing: 0px; -webkit-text-stroke-width: 0px; white-space: normal; background-color: rgb(251, 251, 251); text-decoration-thickness: initial; text-decoration-style: initial; text-decoration-color: initial; font-size: 21px;&quot;&gt;&lt;font style=&quot;forced-color-adjust: none; font-size: 21px;&quot;&gt;email: text&lt;/font&gt;&lt;/div&gt;&lt;div style=&quot;forced-color-adjust: none; color: rgb(0, 0, 0); font-family: Helvetica; font-style: normal; font-variant-ligatures: normal; font-variant-caps: normal; font-weight: 400; letter-spacing: normal; orphans: 2; text-indent: 0px; text-transform: none; widows: 2; word-spacing: 0px; -webkit-text-stroke-width: 0px; white-space: normal; background-color: rgb(251, 251, 251); text-decoration-thickness: initial; text-decoration-style: initial; text-decoration-color: initial; font-size: 21px;&quot;&gt;&lt;font style=&quot;forced-color-adjust: none; font-size: 21px;&quot;&gt;password: text&lt;/font&gt;&lt;/div&gt;&#xa;&#xa;" style="rounded=0;whiteSpace=wrap;html=1;align=left;" parent="1" vertex="1">
          <mxGeometry x="604" y="620" width="223" height="170" as="geometry" />
        </mxCell>
        <mxCell id="0BwHA3h7uG1Hugz1Lj5o-4" value="Cars" style="rounded=0;whiteSpace=wrap;html=1;fontSize=21;" parent="1" vertex="1">
          <mxGeometry x="1050" y="400" width="260" height="60" as="geometry" />
        </mxCell>
        <mxCell id="0BwHA3h7uG1Hugz1Lj5o-5" value="&lt;font style=&quot;font-size: 16px;&quot;&gt;brand_id: uuid&lt;/font&gt;&lt;div style=&quot;font-size: 16px;&quot;&gt;model_id: uuid&lt;/div&gt;&lt;div style=&quot;font-size: 16px;&quot;&gt;price: number&lt;/div&gt;&lt;div style=&quot;font-size: 16px;&quot;&gt;year: number&lt;/div&gt;&lt;div style=&quot;font-size: 16px;&quot;&gt;description: text&lt;/div&gt;&lt;div style=&quot;font-size: 16px;&quot;&gt;&lt;br&gt;&lt;/div&gt;&lt;div style=&quot;font-size: 16px;&quot;&gt;salesman_Id: uuid&lt;/div&gt;&lt;div style=&quot;font-size: 16px;&quot;&gt;customer_Id: uuid&lt;/div&gt;&lt;div style=&quot;font-size: 16px;&quot;&gt;city_name: text&lt;/div&gt;&lt;div style=&quot;font-size: 16px;&quot;&gt;&lt;br&gt;&lt;/div&gt;" style="rounded=0;whiteSpace=wrap;html=1;align=left;" parent="1" vertex="1">
          <mxGeometry x="1050" y="460" width="260" height="210" as="geometry" />
        </mxCell>
        <mxCell id="0BwHA3h7uG1Hugz1Lj5o-6" value="&#xa;&lt;br style=&quot;forced-color-adjust: none; font-size: 18px;&quot;&gt;&lt;span style=&quot;forced-color-adjust: none; font-size: 18px;&quot;&gt;id:uuid&lt;/span&gt;&lt;div style=&quot;forced-color-adjust: none; font-size: 18px;&quot;&gt;created:timestamp&lt;/div&gt;&lt;div style=&quot;forced-color-adjust: none; font-size: 18px;&quot;&gt;updated:timestamp&lt;/div&gt;&lt;div style=&quot;forced-color-adjust: none; font-size: 18px;&quot;&gt;&lt;br style=&quot;forced-color-adjust: none; color: rgb(0, 0, 0); font-family: Helvetica; font-style: normal; font-variant-ligatures: normal; font-variant-caps: normal; font-weight: 400; letter-spacing: normal; orphans: 2; text-indent: 0px; text-transform: none; widows: 2; word-spacing: 0px; -webkit-text-stroke-width: 0px; white-space: normal; background-color: rgb(251, 251, 251); text-decoration-thickness: initial; text-decoration-style: initial; text-decoration-color: initial; font-size: 18px;&quot;&gt;&#xa;&#xa;&lt;/div&gt;" style="rounded=0;whiteSpace=wrap;html=1;align=left;fontSize=18;" parent="1" vertex="1">
          <mxGeometry x="1050" y="670" width="260" height="90" as="geometry" />
        </mxCell>
        <mxCell id="0BwHA3h7uG1Hugz1Lj5o-7" value="&lt;font style=&quot;font-size: 19px;&quot;&gt;Cities&lt;/font&gt;" style="whiteSpace=wrap;html=1;" parent="1" vertex="1">
          <mxGeometry x="1130" y="840" width="180" height="60" as="geometry" />
        </mxCell>
        <mxCell id="0BwHA3h7uG1Hugz1Lj5o-8" value="city: text&lt;div&gt;city_id: uuid&lt;/div&gt;" style="whiteSpace=wrap;html=1;" parent="1" vertex="1">
          <mxGeometry x="1130" y="900" width="180" height="60" as="geometry" />
        </mxCell>
        <mxCell id="0BwHA3h7uG1Hugz1Lj5o-12" value="" style="edgeStyle=entityRelationEdgeStyle;fontSize=12;html=1;endArrow=ERmandOne;startArrow=ERmandOne;rounded=0;entryX=0;entryY=0.5;entryDx=0;entryDy=0;exitX=1.05;exitY=0.622;exitDx=0;exitDy=0;exitPerimeter=0;" parent="1" source="eurHvXZVV9UuIyRGiBzC-23" target="eurHvXZVV9UuIyRGiBzC-6" edge="1">
          <mxGeometry width="100" height="100" relative="1" as="geometry">
            <mxPoint x="350" y="480" as="sourcePoint" />
            <mxPoint x="420" y="270" as="targetPoint" />
            <Array as="points">
              <mxPoint x="420" y="280" />
            </Array>
          </mxGeometry>
        </mxCell>
        <mxCell id="0BwHA3h7uG1Hugz1Lj5o-13" value="" style="edgeStyle=entityRelationEdgeStyle;fontSize=12;html=1;endArrow=ERmandOne;startArrow=ERmandOne;rounded=0;exitX=1;exitY=0.75;exitDx=0;exitDy=0;" parent="1" source="eurHvXZVV9UuIyRGiBzC-23" edge="1">
          <mxGeometry width="100" height="100" relative="1" as="geometry">
            <mxPoint x="480" y="600" as="sourcePoint" />
            <mxPoint x="600" y="700" as="targetPoint" />
            <Array as="points">
              <mxPoint x="-60" y="720" />
              <mxPoint x="290" y="670" />
            </Array>
          </mxGeometry>
        </mxCell>
        <mxCell id="0BwHA3h7uG1Hugz1Lj5o-14" value="" style="edgeStyle=entityRelationEdgeStyle;fontSize=12;html=1;endArrow=ERzeroToMany;startArrow=ERzeroToOne;rounded=0;entryX=0;entryY=0.75;entryDx=0;entryDy=0;" parent="1" target="0BwHA3h7uG1Hugz1Lj5o-5" edge="1">
          <mxGeometry width="100" height="100" relative="1" as="geometry">
            <mxPoint x="820" y="700" as="sourcePoint" />
            <mxPoint x="920" y="600" as="targetPoint" />
            <Array as="points">
              <mxPoint x="1160" y="710" />
            </Array>
          </mxGeometry>
        </mxCell>
        <mxCell id="0BwHA3h7uG1Hugz1Lj5o-22" value="" style="edgeStyle=entityRelationEdgeStyle;fontSize=12;html=1;endArrow=ERmandOne;startArrow=ERmandOne;rounded=0;entryX=1;entryY=0.681;entryDx=0;entryDy=0;entryPerimeter=0;" parent="1" target="0BwHA3h7uG1Hugz1Lj5o-5" edge="1">
          <mxGeometry width="100" height="100" relative="1" as="geometry">
            <mxPoint x="1310" y="930" as="sourcePoint" />
            <mxPoint x="1410" y="830" as="targetPoint" />
            <Array as="points">
              <mxPoint x="1900" y="1190" />
              <mxPoint x="1950" y="1010" />
            </Array>
          </mxGeometry>
        </mxCell>
        <mxCell id="yi0ejjIWuIBJxyxhGZrh-1" value="" style="verticalLabelPosition=bottom;verticalAlign=top;html=1;shape=mxgraph.basic.tick" parent="1" vertex="1">
          <mxGeometry x="440" y="340" width="35" height="40" as="geometry" />
        </mxCell>
        <mxCell id="yi0ejjIWuIBJxyxhGZrh-2" value="" style="verticalLabelPosition=bottom;verticalAlign=top;html=1;shape=mxgraph.basic.tick" parent="1" vertex="1">
          <mxGeometry x="430" y="550" width="35" height="40" as="geometry" />
        </mxCell>
        <mxCell id="yi0ejjIWuIBJxyxhGZrh-4" value="" style="verticalLabelPosition=bottom;verticalAlign=top;html=1;shape=mxgraph.basic.tick" parent="1" vertex="1">
          <mxGeometry x="1370" y="720" width="35" height="40" as="geometry" />
        </mxCell>
        <mxCell id="yi0ejjIWuIBJxyxhGZrh-5" value="" style="verticalLabelPosition=bottom;verticalAlign=top;html=1;shape=mxgraph.basic.tick" parent="1" vertex="1">
          <mxGeometry x="940" y="590" width="35" height="40" as="geometry" />
        </mxCell>
        <mxCell id="jlf7-fu_NBlKgYwUBR0I-2" value="&lt;font style=&quot;font-size: 15px;&quot;&gt;id: uuid&lt;/font&gt;&lt;div style=&quot;font-size: 15px;&quot;&gt;&lt;font style=&quot;font-size: 15px;&quot;&gt;name: string&lt;/font&gt;&lt;/div&gt;" style="whiteSpace=wrap;html=1;align=left;" parent="1" vertex="1">
          <mxGeometry x="70" y="-230" width="170" height="160" as="geometry" />
        </mxCell>
        <mxCell id="jlf7-fu_NBlKgYwUBR0I-3" value="&lt;font style=&quot;font-size: 15px;&quot;&gt;Admin&lt;/font&gt;" style="whiteSpace=wrap;html=1;" parent="1" vertex="1">
          <mxGeometry x="70" y="-290" width="170" height="60" as="geometry" />
        </mxCell>
        <mxCell id="jlf7-fu_NBlKgYwUBR0I-4" value="&lt;br&gt;&lt;br style=&quot;forced-color-adjust: none;&quot;&gt;&lt;span style=&quot;forced-color-adjust: none; font-size: 14px;&quot;&gt;id:uuid&lt;/span&gt;&lt;div style=&quot;forced-color-adjust: none; font-size: 14px;&quot;&gt;created:timestamp&lt;/div&gt;&lt;div style=&quot;forced-color-adjust: none; font-size: 14px;&quot;&gt;updated:timestamp&lt;/div&gt;&lt;div style=&quot;forced-color-adjust: none;&quot;&gt;&lt;br style=&quot;forced-color-adjust: none; color: rgb(0, 0, 0); font-family: Helvetica; font-style: normal; font-variant-ligatures: normal; font-variant-caps: normal; font-weight: 400; letter-spacing: normal; orphans: 2; text-indent: 0px; text-transform: none; widows: 2; word-spacing: 0px; -webkit-text-stroke-width: 0px; white-space: normal; background-color: rgb(251, 251, 251); text-decoration-thickness: initial; text-decoration-style: initial; text-decoration-color: initial; font-size: 14px;&quot;&gt;&lt;br&gt;&lt;br&gt;&lt;/div&gt;" style="rounded=0;whiteSpace=wrap;html=1;align=left;" parent="1" vertex="1">
          <mxGeometry x="70" y="-70" width="170" height="70" as="geometry" />
        </mxCell>
        <mxCell id="jlf7-fu_NBlKgYwUBR0I-5" value="Manager" style="rounded=0;whiteSpace=wrap;html=1;" parent="1" vertex="1">
          <mxGeometry x="400" y="-290" width="155" height="60" as="geometry" />
        </mxCell>
        <mxCell id="jlf7-fu_NBlKgYwUBR0I-6" value="&lt;br&gt;&lt;font style=&quot;forced-color-adjust: none; color: rgb(0, 0, 0); font-family: Helvetica; font-style: normal; font-variant-ligatures: normal; font-variant-caps: normal; font-weight: 400; letter-spacing: normal; orphans: 2; text-indent: 0px; text-transform: none; widows: 2; word-spacing: 0px; -webkit-text-stroke-width: 0px; white-space: normal; background-color: rgb(251, 251, 251); text-decoration-thickness: initial; text-decoration-style: initial; text-decoration-color: initial; font-size: 15px;&quot;&gt;id: uuid&lt;/font&gt;&lt;div style=&quot;forced-color-adjust: none; color: rgb(0, 0, 0); font-family: Helvetica; font-style: normal; font-variant-ligatures: normal; font-variant-caps: normal; font-weight: 400; letter-spacing: normal; orphans: 2; text-indent: 0px; text-transform: none; widows: 2; word-spacing: 0px; -webkit-text-stroke-width: 0px; white-space: normal; background-color: rgb(251, 251, 251); text-decoration-thickness: initial; text-decoration-style: initial; text-decoration-color: initial; font-size: 15px;&quot;&gt;&lt;font style=&quot;forced-color-adjust: none; font-size: 15px;&quot;&gt;name: string&lt;/font&gt;&lt;/div&gt;&lt;div&gt;&lt;br/&gt;&lt;/div&gt;" style="rounded=0;whiteSpace=wrap;html=1;align=left;" parent="1" vertex="1">
          <mxGeometry x="400" y="-230" width="155" height="140" as="geometry" />
        </mxCell>
        <mxCell id="jlf7-fu_NBlKgYwUBR0I-7" value="&#xa;&lt;br style=&quot;forced-color-adjust: none; color: rgb(0, 0, 0); font-family: Helvetica; font-size: 12px; font-style: normal; font-variant-ligatures: normal; font-variant-caps: normal; font-weight: 400; letter-spacing: normal; orphans: 2; text-align: left; text-indent: 0px; text-transform: none; widows: 2; word-spacing: 0px; -webkit-text-stroke-width: 0px; white-space: normal; background-color: rgb(251, 251, 251); text-decoration-thickness: initial; text-decoration-style: initial; text-decoration-color: initial;&quot;&gt;&lt;br style=&quot;forced-color-adjust: none; color: rgb(0, 0, 0); font-family: Helvetica; font-size: 12px; font-style: normal; font-variant-ligatures: normal; font-variant-caps: normal; font-weight: 400; letter-spacing: normal; orphans: 2; text-align: left; text-indent: 0px; text-transform: none; widows: 2; word-spacing: 0px; -webkit-text-stroke-width: 0px; white-space: normal; background-color: rgb(251, 251, 251); text-decoration-thickness: initial; text-decoration-style: initial; text-decoration-color: initial;&quot;&gt;&lt;span style=&quot;forced-color-adjust: none; color: rgb(0, 0, 0); font-family: Helvetica; font-style: normal; font-variant-ligatures: normal; font-variant-caps: normal; font-weight: 400; letter-spacing: normal; orphans: 2; text-align: left; text-indent: 0px; text-transform: none; widows: 2; word-spacing: 0px; -webkit-text-stroke-width: 0px; white-space: normal; background-color: rgb(251, 251, 251); text-decoration-thickness: initial; text-decoration-style: initial; text-decoration-color: initial; font-size: 14px;&quot;&gt;id:uuid&lt;/span&gt;&lt;div style=&quot;forced-color-adjust: none; color: rgb(0, 0, 0); font-family: Helvetica; font-style: normal; font-variant-ligatures: normal; font-variant-caps: normal; font-weight: 400; letter-spacing: normal; orphans: 2; text-align: left; text-indent: 0px; text-transform: none; widows: 2; word-spacing: 0px; -webkit-text-stroke-width: 0px; white-space: normal; background-color: rgb(251, 251, 251); text-decoration-thickness: initial; text-decoration-style: initial; text-decoration-color: initial; font-size: 14px;&quot;&gt;created:timestamp&lt;/div&gt;&lt;div style=&quot;forced-color-adjust: none; color: rgb(0, 0, 0); font-family: Helvetica; font-style: normal; font-variant-ligatures: normal; font-variant-caps: normal; font-weight: 400; letter-spacing: normal; orphans: 2; text-align: left; text-indent: 0px; text-transform: none; widows: 2; word-spacing: 0px; -webkit-text-stroke-width: 0px; white-space: normal; background-color: rgb(251, 251, 251); text-decoration-thickness: initial; text-decoration-style: initial; text-decoration-color: initial; font-size: 14px;&quot;&gt;updated:timestamp&lt;/div&gt;&lt;div style=&quot;forced-color-adjust: none; color: rgb(0, 0, 0); font-family: Helvetica; font-size: 12px; font-style: normal; font-variant-ligatures: normal; font-variant-caps: normal; font-weight: 400; letter-spacing: normal; orphans: 2; text-align: left; text-indent: 0px; text-transform: none; widows: 2; word-spacing: 0px; -webkit-text-stroke-width: 0px; white-space: normal; background-color: rgb(251, 251, 251); text-decoration-thickness: initial; text-decoration-style: initial; text-decoration-color: initial;&quot;&gt;&lt;br style=&quot;forced-color-adjust: none; color: rgb(0, 0, 0); font-family: Helvetica; font-style: normal; font-variant-ligatures: normal; font-variant-caps: normal; font-weight: 400; letter-spacing: normal; orphans: 2; text-indent: 0px; text-transform: none; widows: 2; word-spacing: 0px; -webkit-text-stroke-width: 0px; white-space: normal; background-color: rgb(251, 251, 251); text-decoration-thickness: initial; text-decoration-style: initial; text-decoration-color: initial; font-size: 14px;&quot;&gt;&lt;br style=&quot;forced-color-adjust: none;&quot;&gt;&lt;/div&gt;&#xa;&#xa;" style="rounded=0;whiteSpace=wrap;html=1;align=left;" parent="1" vertex="1">
          <mxGeometry x="400" y="-90" width="155" height="100" as="geometry" />
        </mxCell>
        <mxCell id="jlf7-fu_NBlKgYwUBR0I-8" style="edgeStyle=orthogonalEdgeStyle;rounded=0;orthogonalLoop=1;jettySize=auto;html=1;exitX=0.5;exitY=1;exitDx=0;exitDy=0;" parent="1" source="jlf7-fu_NBlKgYwUBR0I-7" target="jlf7-fu_NBlKgYwUBR0I-7" edge="1">
          <mxGeometry relative="1" as="geometry" />
        </mxCell>
        <mxCell id="6WWpO7h0qMnxvAwgbyHn-1" value="Models" style="swimlane;fontStyle=0;childLayout=stackLayout;horizontal=1;startSize=30;horizontalStack=0;resizeParent=1;resizeParentMax=0;resizeLast=0;collapsible=1;marginBottom=0;whiteSpace=wrap;html=1;" parent="1" vertex="1">
          <mxGeometry x="1460" y="430" width="140" height="120" as="geometry" />
        </mxCell>
        <mxCell id="6WWpO7h0qMnxvAwgbyHn-2" value="name: text" style="text;strokeColor=none;fillColor=none;align=left;verticalAlign=middle;spacingLeft=4;spacingRight=4;overflow=hidden;points=[[0,0.5],[1,0.5]];portConstraint=eastwest;rotatable=0;whiteSpace=wrap;html=1;" parent="6WWpO7h0qMnxvAwgbyHn-1" vertex="1">
          <mxGeometry y="30" width="140" height="30" as="geometry" />
        </mxCell>
        <mxCell id="6WWpO7h0qMnxvAwgbyHn-3" value="id: uuid" style="text;strokeColor=none;fillColor=none;align=left;verticalAlign=middle;spacingLeft=4;spacingRight=4;overflow=hidden;points=[[0,0.5],[1,0.5]];portConstraint=eastwest;rotatable=0;whiteSpace=wrap;html=1;" parent="6WWpO7h0qMnxvAwgbyHn-1" vertex="1">
          <mxGeometry y="60" width="140" height="30" as="geometry" />
        </mxCell>
        <mxCell id="6WWpO7h0qMnxvAwgbyHn-4" value="Item 3" style="text;strokeColor=none;fillColor=none;align=left;verticalAlign=middle;spacingLeft=4;spacingRight=4;overflow=hidden;points=[[0,0.5],[1,0.5]];portConstraint=eastwest;rotatable=0;whiteSpace=wrap;html=1;" parent="6WWpO7h0qMnxvAwgbyHn-1" vertex="1">
          <mxGeometry y="90" width="140" height="30" as="geometry" />
        </mxCell>
        <mxCell id="6WWpO7h0qMnxvAwgbyHn-5" value="Brands&lt;div&gt;&lt;br&gt;&lt;/div&gt;" style="swimlane;fontStyle=0;childLayout=stackLayout;horizontal=1;startSize=30;horizontalStack=0;resizeParent=1;resizeParentMax=0;resizeLast=0;collapsible=1;marginBottom=0;whiteSpace=wrap;html=1;" parent="1" vertex="1">
          <mxGeometry x="1450" y="670" width="140" height="120" as="geometry" />
        </mxCell>
        <mxCell id="6WWpO7h0qMnxvAwgbyHn-6" value="name: string&lt;div&gt;&lt;br&gt;&lt;/div&gt;" style="text;strokeColor=none;fillColor=none;align=left;verticalAlign=middle;spacingLeft=4;spacingRight=4;overflow=hidden;points=[[0,0.5],[1,0.5]];portConstraint=eastwest;rotatable=0;whiteSpace=wrap;html=1;" parent="6WWpO7h0qMnxvAwgbyHn-5" vertex="1">
          <mxGeometry y="30" width="140" height="30" as="geometry" />
        </mxCell>
        <mxCell id="6WWpO7h0qMnxvAwgbyHn-7" value="id: uuid" style="text;strokeColor=none;fillColor=none;align=left;verticalAlign=middle;spacingLeft=4;spacingRight=4;overflow=hidden;points=[[0,0.5],[1,0.5]];portConstraint=eastwest;rotatable=0;whiteSpace=wrap;html=1;" parent="6WWpO7h0qMnxvAwgbyHn-5" vertex="1">
          <mxGeometry y="60" width="140" height="30" as="geometry" />
        </mxCell>
        <mxCell id="6WWpO7h0qMnxvAwgbyHn-8" value="model_id:string" style="text;strokeColor=none;fillColor=none;align=left;verticalAlign=middle;spacingLeft=4;spacingRight=4;overflow=hidden;points=[[0,0.5],[1,0.5]];portConstraint=eastwest;rotatable=0;whiteSpace=wrap;html=1;" parent="6WWpO7h0qMnxvAwgbyHn-5" vertex="1">
          <mxGeometry y="90" width="140" height="30" as="geometry" />
        </mxCell>
        <mxCell id="6WWpO7h0qMnxvAwgbyHn-10" value="" style="edgeStyle=entityRelationEdgeStyle;fontSize=12;html=1;endArrow=ERoneToMany;rounded=0;entryX=1;entryY=0.471;entryDx=0;entryDy=0;entryPerimeter=0;exitX=0.007;exitY=1.1;exitDx=0;exitDy=0;exitPerimeter=0;" parent="1" source="6WWpO7h0qMnxvAwgbyHn-2" target="0BwHA3h7uG1Hugz1Lj5o-5" edge="1">
          <mxGeometry width="100" height="100" relative="1" as="geometry">
            <mxPoint x="1180" y="570" as="sourcePoint" />
            <mxPoint x="1280" y="470" as="targetPoint" />
            <Array as="points">
              <mxPoint x="1460" y="320" />
            </Array>
          </mxGeometry>
        </mxCell>
        <mxCell id="6WWpO7h0qMnxvAwgbyHn-11" value="" style="edgeStyle=entityRelationEdgeStyle;fontSize=12;html=1;endArrow=ERoneToMany;rounded=0;exitX=0;exitY=0.167;exitDx=0;exitDy=0;exitPerimeter=0;" parent="1" source="6WWpO7h0qMnxvAwgbyHn-5" target="0BwHA3h7uG1Hugz1Lj5o-5" edge="1">
          <mxGeometry width="100" height="100" relative="1" as="geometry">
            <mxPoint x="1440" y="544.45" as="sourcePoint" />
            <mxPoint x="1618.96" y="675.55" as="targetPoint" />
            <Array as="points">
              <mxPoint x="1558.96" y="570.55" />
              <mxPoint x="1668.96" y="560.55" />
            </Array>
          </mxGeometry>
        </mxCell>
        <mxCell id="6WWpO7h0qMnxvAwgbyHn-12" value="" style="verticalLabelPosition=bottom;verticalAlign=top;html=1;shape=mxgraph.basic.tick" parent="1" vertex="1">
          <mxGeometry x="1405" y="605" width="35" height="40" as="geometry" />
        </mxCell>
        <mxCell id="6WWpO7h0qMnxvAwgbyHn-13" value="" style="verticalLabelPosition=bottom;verticalAlign=top;html=1;shape=mxgraph.basic.tick" parent="1" vertex="1">
          <mxGeometry x="1405" y="470" width="35" height="40" as="geometry" />
        </mxCell>
        <mxCell id="6WWpO7h0qMnxvAwgbyHn-14" value="" style="edgeStyle=entityRelationEdgeStyle;fontSize=12;html=1;endArrow=ERoneToMany;rounded=0;" parent="1" target="6WWpO7h0qMnxvAwgbyHn-1" edge="1">
          <mxGeometry width="100" height="100" relative="1" as="geometry">
            <mxPoint x="1590" y="740" as="sourcePoint" />
            <mxPoint x="1690" y="640" as="targetPoint" />
          </mxGeometry>
        </mxCell>
        <mxCell id="6WWpO7h0qMnxvAwgbyHn-16" value="" style="verticalLabelPosition=bottom;verticalAlign=top;html=1;shape=mxgraph.basic.tick" parent="1" vertex="1">
          <mxGeometry x="1590" y="580" width="35" height="40" as="geometry" />
        </mxCell>
      </root>
    </mxGraphModel>
  </diagram>
</mxfile>
